<?xml version="1.0" encoding="utf-8"?>
<!-- Generator: Adobe Illustrator 25.1.0, SVG Export Plug-In . SVG Version: 6.00 Build 0)  -->
<svg version="1.1" id="Layer_1" xmlns="http://www.w3.org/2000/svg" xmlns:xlink="http://www.w3.org/1999/xlink" x="0px" y="0px"
	 viewBox="0 0 81.9 71.5" style="enable-background:new 0 0 81.9 71.5;" xml:space="preserve">
<style type="text/css">
	.st0{fill:#3865AB;}
	.st1{fill:url(#SVGID_1_);}
</style>
<path class="st0" d="M77.7,0H4.2C1.9,0,0,1.9,0,4.2v63c0,2.3,1.9,4.2,4.2,4.2c0,0,0,0,0,0h73.5c2.3,0,4.2-1.9,4.2-4.2v-63
	C81.9,1.9,80,0,77.7,0z M5.4,67V8.7h71.1V67H5.4z"/>
<linearGradient id="SVGID_1_" gradientUnits="userSpaceOnUse" x1="13.7701" y1="37.5635" x2="67.8887" y2="37.5635">
	<stop  offset="0" style="stop-color:#F2CC0C"/>
	<stop  offset="1" style="stop-color:#FF9830"/>
</linearGradient>
<path class="st1" d="M60.2,65.6c-1.4,0-2.5-1.1-2.5-2.5c0,0-0.1-3.6-0.1-7c0-0.6-1.4-1.7-5.2-2.5c-4.1-0.8-9.6-1.1-14.9-1.4
	c-11.6-0.6-20.8-1.1-20.8-7c0-5.7,9.7-6.8,26.8-8.3c6.7-0.6,16.6-1.5,19.3-2.8c-0.8-1.1-4.8-3.9-23.5-4c-9.8-0.1-16.9-2.5-21.3-7.2
	c-4.6-5-4.1-10.8-4.1-11c0.1-1.4,1.3-2.4,2.7-2.3c1.4,0.1,2.4,1.3,2.3,2.7c0,0.2-0.2,3.9,2.9,7.3C25,23.1,31,25,39.2,25
	c19.9,0.1,28.7,3,28.7,9.5c0,5-7.8,5.9-24.1,7.3C36.6,42.5,25,43.5,22,45.3c2.4,1.2,10.6,1.7,15.7,2c12.7,0.7,24.7,1.4,24.9,8.8
	c0.1,3.5,0.1,7.1,0.1,7.1C62.7,64.5,61.6,65.6,60.2,65.6C60.2,65.6,60.2,65.6,60.2,65.6z"/>
</svg>
